<svg xmlns="http://www.w3.org/2000/svg" width="900" height="1200" viewBox="0 0 900 1200" role="img" aria-labelledby="title desc">
  <title id="title">김하루 테스트용 추모 이미지</title>
  <desc id="desc">실존 인물이 아닌 MVP 테스트용 추모 카드형 인물 플레이스홀더</desc>
  <rect width="900" height="1200" fill="#161616"/>
  <rect x="48" y="48" width="804" height="1104" rx="32" fill="#24211d" stroke="#c9a96e" stroke-width="3"/>
  <circle cx="450" cy="390" r="170" fill="#3b3832"/>
  <circle cx="450" cy="328" r="92" fill="#d8c8ad"/>
  <path d="M285 760c28-116 105-188 165-188s137 72 165 188" fill="#d8c8ad"/>
  <path d="M300 770h300c54 0 98 44 98 98v92H202v-92c0-54 44-98 98-98Z" fill="#514838"/>
  <path d="M221 182c70 34 138 34 205 0-70 82-138 82-205 0Z" fill="none" stroke="#7f724f" stroke-width="6" opacity=".55"/>
  <path d="M640 165c-40 66-40 132 0 198-75-66-75-132 0-198Z" fill="none" stroke="#7f724f" stroke-width="6" opacity=".55"/>
  <text x="450" y="1010" text-anchor="middle" font-family="serif" font-size="54" fill="#f5f0e8">김하루</text>
  <text x="450" y="1072" text-anchor="middle" font-family="sans-serif" font-size="28" fill="#c9a96e">1948.03.12 - 2026.05.18</text>
</svg>

