<svg xmlns="http://www.w3.org/2000/svg" width="1200" height="800" viewBox="0 0 1200 800" role="img" aria-labelledby="title desc">
  <title id="title">장례식장 지도 플레이스홀더</title>
  <desc id="desc">카카오맵 연동 전 위치 섹션 테스트용 가상 지도 이미지</desc>
  <rect width="1200" height="800" fill="#ece8dd"/>
  <path d="M0 190h1200M0 420h1200M0 650h1200" stroke="#d2c8b8" stroke-width="24"/>
  <path d="M210 0v800M565 0v800M930 0v800" stroke="#d9d0c2" stroke-width="20"/>
  <path d="M120 720C320 590 440 575 600 438s270-200 510-250" fill="none" stroke="#b6c1ad" stroke-width="52" stroke-linecap="round"/>
  <rect x="420" y="255" width="360" height="230" rx="18" fill="#2d2d2b"/>
  <rect x="468" y="302" width="264" height="46" rx="8" fill="#c9a96e"/>
  <rect x="480" y="378" width="80" height="72" rx="8" fill="#f5f0e8"/>
  <rect x="620" y="378" width="80" height="72" rx="8" fill="#f5f0e8"/>
  <path d="M600 178c-70 0-126 56-126 126 0 94 126 224 126 224s126-130 126-224c0-70-56-126-126-126Z" fill="#7a1f1f"/>
  <circle cx="600" cy="304" r="45" fill="#f5f0e8"/>
  <text x="600" y="620" text-anchor="middle" font-family="sans-serif" font-size="40" fill="#24211d">한빛추모병원 장례식장</text>
</svg>

